<?xml version="1.0" encoding="utf-8"?>
<svg viewBox="0 0 24 24" xmlns="http://www.w3.org/2000/svg">
  <g>
    <path d="M21.96 9.73a1 1 0 0 1-.51 1.32A8.92 8.92 0 0 1 13 9.5a9.13 9.13 0 0 1-8.5 1.5 1 1 0 1 1 .81-1.83 7.08 7.08 0 0 0 6.5-1.16A7.08 7.08 0 0 0 18.3 9.2a1 1 0 0 1 1.32.51" fill="#FF6B6B"/>
    <path d="M12 2a10 10 0 1 0 10 10A10 10 0 0 0 12 2m0 18a8 8 0 1 1 8-8 8 8 0 0 1-8 8" fill="#4CAF50"/>
    <path d="M8.8 15.5a1 1 0 0 1-.7-.3l-2-2a1 1 0 0 1 1.4-1.4l1.3 1.3 3.3-3.3a1 1 0 0 1 1.4 1.4l-4 4a1 1 0 0 1-.7.3" fill="#FF6B6B"/>
  </g>
</svg>
