<svg version="1.1" id="Layer_1" xmlns="http://www.w3.org/2000/svg" xmlns:xlink="http://www.w3.org/1999/xlink" x="0px" y="0px"
	 width="100%" viewBox="0 0 500 500" enable-background="new 0 0 500 500" xml:space="preserve">
<path fill="#000000" opacity="1.000000" stroke="none" 
	d="
M283.000000,501.000000 
	C188.666687,501.000000 94.833382,501.000000 1.000050,501.000000 
	C1.000034,334.333405 1.000034,167.666794 1.000017,1.000140 
	C167.666565,1.000093 334.333130,1.000093 500.999756,1.000047 
	C500.999847,167.666519 500.999847,334.333038 500.999939,500.999786 
	C428.500000,501.000000 356.000000,501.000000 283.000000,501.000000 
M357.002625,138.005768 
	C357.002625,138.005768 357.046539,138.057831 357.519226,137.880066 
	C357.698944,137.603821 357.878662,137.327576 358.092041,137.112061 
	C358.092041,137.112061 358.152069,137.077118 358.990448,137.087616 
	C360.892120,136.722778 362.789703,136.069885 364.696136,136.043045 
	C372.856720,135.928177 381.056610,136.433441 389.161194,135.751114 
	C391.802612,135.528748 394.401947,132.586914 396.551147,130.422729 
	C397.039612,129.930878 395.578949,127.503380 394.952606,125.482101 
	C394.952606,125.482101 394.824371,125.010429 394.883484,124.504929 
	C394.611969,124.326080 394.340485,124.147232 394.067963,123.931374 
	C394.067963,123.931374 394.030975,123.929939 393.888885,123.446854 
	C393.594788,123.360237 393.300659,123.273613 392.604706,123.068642 
	C392.604706,123.068642 392.187836,123.026985 391.713226,122.258797 
	C380.486237,122.155754 369.259277,122.034546 358.032074,121.993782 
	C357.342133,121.991272 356.649872,122.624069 356.002899,122.997360 
	C356.002899,122.997360 356.007965,122.940544 355.329559,122.949135 
	C354.817749,123.297668 354.305969,123.646202 353.110718,124.060905 
	C347.993073,127.379692 343.233887,130.960159 342.230865,138.272522 
	C342.230865,164.380310 342.230865,190.488098 342.230865,216.992905 
	C339.944031,216.992905 338.321289,216.992905 336.698547,216.992889 
	C279.372406,216.992706 222.046249,216.983902 164.720139,217.024826 
	C162.492889,217.026413 160.265961,217.505051 157.454239,218.086243 
	C156.626770,218.712418 155.799301,219.338577 154.994522,219.989578 
	C154.994522,219.989578 154.965683,219.977707 154.292130,220.459061 
	C153.439850,230.555969 153.807922,230.993622 163.697662,231.005325 
	C193.786453,231.040909 223.875259,231.055634 254.883636,231.014938 
	C258.225769,230.941437 261.567932,230.867935 265.852295,230.969223 
	C279.591461,230.908585 293.330658,230.847931 307.987396,230.925385 
	C313.341522,230.890823 318.695648,230.856247 324.504578,230.931839 
	C324.504578,230.931839 324.961395,230.830429 325.869110,230.970322 
	C328.924530,230.924347 331.979950,230.878372 335.811432,230.932251 
	C338.039917,230.626938 340.654633,227.945526 342.041718,232.900116 
	C342.091553,239.604401 342.141388,246.308701 342.051178,253.658432 
	C342.028229,254.098145 342.005249,254.537857 341.415436,255.251801 
	C341.345337,255.847397 341.275238,256.442993 340.885803,257.657684 
	C336.838287,262.526398 331.771179,264.745880 325.736542,263.902832 
	C323.203125,256.735199 321.161102,249.749878 313.930115,245.459824 
	C313.622833,245.286865 313.315582,245.113922 313.005829,245.000687 
	C313.005829,245.000687 313.061035,244.977814 312.880646,244.444260 
	C312.541779,244.369003 312.202911,244.293747 311.490448,244.091553 
	C311.490448,244.091553 311.107422,243.997040 310.928223,243.457275 
	C310.594818,243.368805 310.261444,243.280319 309.501038,243.085892 
	C309.501038,243.085892 309.066895,243.014618 308.789490,242.438721 
	C308.181976,242.364838 307.574432,242.290955 306.553314,242.072479 
	C306.553314,242.072479 306.123657,241.986511 305.938354,241.457794 
	C305.612183,241.377869 305.285980,241.297943 304.223572,241.127853 
	C303.483734,241.077499 302.743866,241.027145 301.504669,240.299026 
	C293.674316,239.729706 285.953064,239.573593 280.007751,246.008087 
	C280.007751,246.008087 280.000763,245.959915 279.469299,246.072723 
	C279.293182,246.374115 279.117035,246.675491 278.999847,246.975601 
	C278.999847,246.975601 278.959869,246.932220 278.258606,246.965500 
	C277.814789,247.630127 277.371002,248.294769 276.989594,248.983688 
	C276.989594,248.983688 276.951538,248.928574 276.220734,248.973114 
	C273.768829,253.631516 271.316925,258.289917 268.975189,263.020355 
	C268.975189,263.020355 269.047363,262.910248 268.100677,262.992035 
	C253.738037,262.869598 239.375397,262.747131 225.044388,261.914337 
	C220.812210,250.407883 213.238998,242.847900 200.802475,240.398926 
	C191.129990,238.494263 179.419434,242.819458 173.472687,251.008179 
	C167.047241,259.856079 165.783524,269.144989 169.767288,279.485046 
	C176.069748,295.843445 191.280457,301.061981 205.766281,296.906219 
	C215.915527,293.994598 222.390106,286.497620 225.980255,276.011902 
	C238.935562,276.007568 251.891144,275.963226 264.845886,276.046661 
	C266.576111,276.057800 268.302216,276.715881 270.079712,277.818359 
	C273.586182,290.509277 285.927032,297.596893 295.407318,298.011261 
	C307.727753,298.549744 320.058929,291.557953 325.354858,277.127869 
	C331.726593,275.731934 338.060486,275.458069 343.290497,272.914459 
	C349.724518,269.785248 353.200928,263.388824 355.005920,255.310028 
	C355.003754,220.216522 354.988556,185.123016 355.034393,150.029572 
	C355.036896,148.096451 355.546112,146.164001 355.918274,143.372391 
	C355.979218,141.939392 356.040131,140.506409 356.065247,139.020493 
	C356.065247,139.020493 356.047821,139.081955 356.578217,138.959579 
	C356.739227,138.653122 356.900208,138.346649 357.002625,138.005768 
M230.969498,385.146027 
	C230.906219,383.407562 230.842941,381.669098 230.904190,379.118774 
	C230.862793,377.754852 230.821381,376.390961 230.955048,374.098480 
	C230.960632,369.615662 231.135071,365.123260 230.881210,360.655182 
	C230.790985,359.067169 229.659866,357.538361 228.969330,355.206360 
	C228.668549,354.172913 228.632034,352.938751 228.024185,352.138580 
	C224.027512,346.877350 213.496216,344.069519 206.215347,346.411194 
	C201.201340,348.023895 196.161545,349.809052 194.999573,356.337280 
	C196.893829,357.302734 198.726120,358.272675 200.590012,359.177521 
	C202.934021,360.315399 204.943817,360.982178 206.745255,357.918152 
	C208.168472,355.497498 215.126892,354.854126 217.142654,356.811707 
	C218.166061,357.805634 218.664383,359.606293 218.810471,361.099884 
	C218.865021,361.657562 217.318893,362.776337 216.371796,362.958252 
	C212.015442,363.795105 207.570160,364.192139 203.237030,365.121338 
	C196.988068,366.461334 192.251099,372.381317 193.195114,378.386139 
	C194.401840,386.061890 197.424667,390.411652 205.496643,390.708862 
	C209.503311,390.856415 213.574173,388.963318 217.637344,388.092957 
	C218.587112,387.889496 219.626877,388.043365 220.619400,388.114319 
	C223.410080,388.313782 226.197723,388.555725 229.699509,388.860107 
	C230.060028,387.905029 230.420532,386.949951 230.969498,385.146027 
M366.839142,388.597382 
	C366.828674,380.469421 366.818207,372.341461 367.027283,363.514160 
	C369.455383,359.593170 372.377533,356.642059 377.557404,356.927429 
	C384.489502,357.309296 381.636566,351.928558 381.858734,348.778900 
	C382.152557,344.613464 378.443176,344.713989 375.820984,344.725861 
	C374.058014,344.733826 372.219482,346.012085 370.563354,346.977020 
	C368.613068,348.113342 367.362701,349.143677 364.577545,347.605255 
	C362.403290,346.404236 358.772552,347.839905 355.179138,348.647614 
	C355.134033,361.552582 355.070709,374.457581 355.087799,387.362457 
	C355.088837,388.162964 355.721924,388.962585 356.923553,389.912323 
	C359.256226,389.890320 361.588928,389.868347 364.560394,389.959839 
	C365.059204,389.632965 365.558044,389.306122 366.839142,388.597382 
M95.804573,388.591309 
	C95.869774,378.545990 95.894279,368.500031 96.048210,358.456055 
	C96.069038,357.096558 96.739357,355.746979 97.021500,355.093536 
	C100.414291,362.549500 103.635040,370.092590 107.333061,377.393982 
	C108.154060,379.014984 110.511780,380.316681 112.416122,380.839508 
	C117.137703,382.135773 120.164696,379.912201 121.858543,375.404114 
	C123.064529,372.194458 124.496773,369.055359 126.035812,365.989014 
	C127.943016,362.189240 130.064865,358.497192 132.094009,354.758575 
	C132.436172,354.854706 132.778351,354.950806 133.120514,355.046936 
	C133.120514,366.561279 133.120514,378.075623 133.120514,389.808807 
	C135.738632,389.808807 137.866135,389.808807 140.735825,389.963898 
	C141.865356,389.637726 142.994873,389.311554 144.864166,388.547089 
	C144.905792,370.354614 144.969696,352.162048 144.923080,333.969818 
	C144.920761,333.062073 143.959320,332.156738 142.599670,331.115173 
	C133.527451,329.315399 127.833580,332.607178 125.956085,341.954193 
	C125.685219,343.302673 124.535660,344.454803 123.915924,345.756439 
	C120.696953,352.517273 117.517921,359.297150 114.151413,366.438568 
	C113.463120,365.579437 113.091225,365.269684 112.915268,364.873016 
	C108.550766,355.034149 104.329475,345.128448 99.746590,335.392822 
	C98.921906,333.640869 96.622955,332.582855 94.128899,331.040466 
	C91.758224,331.104279 89.387558,331.168091 86.429245,331.139618 
	C86.037056,331.179382 85.644867,331.219147 84.354988,331.362305 
	C84.252785,350.385193 84.143440,369.408051 84.091843,388.431091 
	C84.090622,388.880890 84.736877,389.332458 85.722305,389.929718 
	C86.156242,389.890472 86.590179,389.851227 87.754425,389.938812 
	C88.492699,389.903320 89.230972,389.867798 90.742363,389.983948 
	C92.166649,389.643463 93.590935,389.302979 95.804573,388.591309 
M249.818924,388.627136 
	C249.879807,369.252411 249.955811,349.877655 249.941513,330.502960 
	C249.940994,329.790924 249.056686,329.079559 247.821777,328.046234 
	C244.294693,328.493500 240.767609,328.940765 237.951050,329.297913 
	C237.951050,349.803436 237.951050,369.788574 237.951050,390.545685 
	C242.375626,389.906677 245.689560,389.428070 249.818924,388.627136 
M403.898834,378.073303 
	C403.978424,370.736816 404.057983,363.400330 405.039368,356.016418 
	C408.283386,356.016418 411.527435,356.016418 414.675354,356.016418 
	C414.675354,352.562958 414.675354,349.971954 414.675354,346.849823 
	C410.986938,346.849823 407.590363,346.849823 403.889832,346.849823 
	C403.889832,344.160736 403.773651,342.010590 403.915100,339.877502 
	C404.173279,335.984558 402.788818,333.918610 398.555481,334.075745 
	C395.022095,334.206909 391.505096,333.430603 391.912842,339.173096 
	C392.179688,342.930603 393.599915,348.494537 386.321381,347.273804 
	C385.653961,355.067352 385.653961,355.067352 392.027252,356.670288 
	C392.027252,363.542328 391.977814,370.505402 392.041504,377.467407 
	C392.102081,384.089264 394.669983,389.253998 399.290100,389.843964 
	C404.886017,390.558533 410.642822,390.013489 416.826843,390.013489 
	C415.466705,384.550598 414.975555,380.104034 408.641083,380.738281 
	C407.071838,380.895416 405.358490,379.613098 403.898834,378.073303 
M346.539917,355.212708 
	C344.307953,350.270752 340.164734,347.543365 335.193939,346.287659 
	C332.429626,345.589355 329.373657,346.145142 326.491821,345.789673 
	C321.854370,345.217712 314.351624,348.480469 312.238190,352.485077 
	C311.734680,353.439117 311.649689,355.023193 312.089630,355.991577 
	C313.597626,359.310608 319.935760,359.697357 322.981842,357.735107 
	C325.150787,356.337891 328.393890,355.821381 330.987823,356.171112 
	C332.499969,356.375031 333.677673,359.059479 335.005859,360.627869 
	C333.452026,361.441620 331.982361,362.594727 330.328430,363.004669 
	C325.598053,364.177124 320.462280,364.291443 316.089539,366.202820 
	C308.237854,369.634796 307.342804,382.230927 314.138092,387.589996 
	C319.584961,391.885681 325.573578,391.854980 331.786407,389.618683 
	C332.989105,389.185760 334.197357,388.177002 335.336334,388.268036 
	C338.873688,388.550751 342.378937,389.234863 346.716492,389.490234 
	C346.730225,378.271912 346.743958,367.053558 346.539917,355.212708 
M175.342728,145.257935 
	C168.780411,156.246674 164.613190,167.934555 164.102219,180.990555 
	C162.780975,181.022034 161.159943,180.577789 160.200058,181.182693 
	C158.114471,182.496994 155.571152,183.993500 154.654907,186.055405 
	C153.020538,189.733337 154.028534,193.383011 157.639847,195.854828 
	C162.079956,198.893890 166.523376,201.928101 171.363297,205.752609 
	C171.854599,205.828293 172.345886,205.970123 172.837204,205.970291 
	C219.905945,205.985870 266.974670,205.996948 314.043396,205.953171 
	C315.028900,205.952255 316.013855,205.309357 317.704437,204.923630 
	C320.898376,202.261719 323.734314,198.820541 327.381409,197.145035 
	C331.478180,195.262955 333.936707,193.104034 334.038086,188.542206 
	C334.148010,183.596573 330.144775,182.644623 326.829224,181.066895 
	C326.021423,180.682510 325.015839,180.713791 323.718475,180.487061 
	C325.455078,173.668457 320.282379,168.566391 320.493530,161.826996 
	C320.651001,156.802338 316.978943,151.253143 313.974335,146.609070 
	C304.612152,132.138306 293.106293,119.757729 276.291229,113.935295 
	C269.547424,111.600159 262.370880,110.525612 255.419174,108.767120 
	C254.494766,108.533279 253.735367,107.647194 252.952164,107.099945 
	C255.340118,105.963287 258.907288,105.245453 259.111420,103.983627 
	C259.713715,100.260025 260.138367,95.746643 258.558716,92.575340 
	C254.010483,83.444519 240.371933,83.009224 234.417847,88.282700 
	C230.188202,92.028870 229.102310,97.104004 230.339020,102.164543 
	C230.839325,104.211754 234.097549,105.584976 236.078690,107.246399 
	C235.932693,107.306595 235.113113,107.856506 234.235443,107.974518 
	C221.174774,109.730522 208.721191,113.119370 197.901947,121.090630 
	C189.029846,127.627304 180.622559,134.576126 175.342728,145.257935 
M287.858490,342.279022 
	C289.326355,343.742523 291.039215,345.033356 292.215576,346.702332 
	C295.576599,351.470795 297.215240,351.912537 302.557983,348.986115 
	C303.654816,348.385254 304.790344,347.855042 306.177582,347.156555 
	C303.449524,339.159851 298.496582,333.996796 290.198975,331.553558 
	C281.014618,328.849182 272.260956,329.821564 265.119202,335.522430 
	C253.673050,344.659271 253.170013,357.989563 255.749115,370.845886 
	C258.338318,383.752625 268.114441,389.308655 281.837341,390.241364 
	C291.830750,390.920593 298.836884,387.212463 304.444672,379.784271 
	C305.487213,378.403320 306.063324,375.379211 305.263947,374.138062 
	C302.754761,370.242279 295.738861,370.720215 293.045227,374.559784 
	C290.279907,378.501556 283.764069,381.976593 280.627655,380.777252 
	C276.340027,379.137726 271.413361,378.096344 269.945465,372.698608 
	C268.896423,368.841034 267.738312,364.990845 267.040497,361.064240 
	C264.971375,349.420410 276.791138,338.261505 287.858490,342.279022 
M188.268051,378.979248 
	C185.042953,378.644226 181.768707,377.814758 178.608109,378.128815 
	C176.026154,378.385376 173.661255,380.465485 171.056442,380.928131 
	C165.619720,381.893738 161.808777,377.799469 162.617355,371.940369 
	C170.196671,371.940369 177.826431,371.929810 185.456116,371.946899 
	C187.714890,371.951935 190.001266,372.011383 189.990738,368.825684 
	C189.969894,362.517273 190.820374,355.863342 184.841095,351.403015 
	C182.202545,349.434784 179.267548,347.835602 176.366669,346.253021 
	C169.140167,342.310669 157.905914,347.389069 153.939011,352.410217 
	C148.447739,359.360840 147.735886,376.899353 156.198563,385.011292 
	C165.262085,393.699219 181.200027,392.639252 188.330109,384.021851 
	C189.175491,383.000153 188.766861,380.940796 188.268051,378.979248 
z"/>
<path fill="#E55324" opacity="1.000000" stroke="none" 
	d="
M311.107422,243.997040 
	C311.107422,243.997040 311.490448,244.091553 311.857300,244.312805 
	C312.476807,244.731552 312.755768,244.879471 313.061035,244.977814 
	C313.061035,244.977814 313.005829,245.000687 313.159271,245.174835 
	C313.577728,245.558395 313.842773,245.767822 314.107788,245.977249 
	C321.161102,249.749878 323.203125,256.735199 325.736542,263.902832 
	C331.771179,264.745880 336.838287,262.526398 341.247345,257.245728 
	C341.733337,256.215057 341.857819,255.596313 341.982269,254.977570 
	C342.005249,254.537857 342.028229,254.098145 342.416901,253.107910 
	C343.180298,247.491043 343.766022,242.428696 343.873962,237.356201 
	C343.911896,235.572739 342.778412,233.764343 342.179810,231.967331 
	C340.654633,227.945526 338.039917,230.626938 335.198425,230.594879 
	C331.263489,228.534500 328.010193,227.964935 324.961395,230.830429 
	C324.961395,230.830429 324.504578,230.931839 324.042114,230.579941 
	C321.529419,229.820404 319.480438,229.065720 317.428711,229.058151 
	C293.733643,228.970612 270.038086,228.971283 246.342911,229.034927 
	C244.244476,229.040558 242.147675,229.652786 239.780365,229.987976 
	C239.330765,229.992096 239.150894,229.991501 238.639359,229.811920 
	C235.833679,229.757996 233.359665,229.883041 230.424194,230.015717 
	C220.948502,229.996307 211.934235,229.969284 202.560028,229.760117 
	C193.470261,229.712570 184.740433,229.847168 175.542419,229.991150 
	C171.912918,230.005447 168.751495,230.028595 165.590271,230.011749 
	C156.921829,229.965591 155.693100,228.798065 154.965683,219.977707 
	C154.965683,219.977707 154.994522,219.989578 155.367126,219.984467 
	C157.489700,219.663940 159.239670,219.348541 161.459259,219.030792 
	C219.322540,219.027054 276.716217,219.037628 334.109833,218.985626 
	C336.720947,218.983261 339.331512,218.416306 342.151398,218.024261 
	C342.360443,217.936188 342.808044,217.862122 343.020935,217.521423 
	C343.480865,215.556915 343.939545,213.933578 343.943146,212.309235 
	C343.993713,189.509415 343.996674,166.709412 343.955566,143.909576 
	C343.952637,142.274445 343.517365,140.640121 343.218048,138.721313 
	C343.112396,138.247192 343.071777,138.057190 343.031128,137.867172 
	C343.233887,130.960159 347.993073,127.379692 353.758698,123.963142 
	C354.940430,123.557098 355.474213,123.248817 356.007965,122.940536 
	C356.007965,122.940544 356.002899,122.997360 356.450043,123.023796 
	C362.967377,123.075943 369.037537,123.101654 375.364380,123.260529 
	C376.731110,123.297714 377.841187,123.201721 379.412903,123.105049 
	C383.257568,123.120407 386.640503,123.136444 390.129822,123.199509 
	C390.236176,123.246529 390.576904,123.283119 390.576904,123.283119 
	C390.576904,123.283119 390.909698,123.195770 391.230286,123.161583 
	C391.763184,123.093933 391.975525,123.060463 392.187836,123.026985 
	C392.187836,123.026985 392.604706,123.068642 392.957123,123.277161 
	C393.519989,123.682541 393.760468,123.830635 394.030975,123.929939 
	C394.030975,123.929939 394.067963,123.931374 394.163086,124.144501 
	C394.420074,124.598511 394.608795,124.816116 394.824371,125.010429 
	C394.824371,125.010429 394.952606,125.482101 394.954529,126.118973 
	C394.822327,132.029068 391.641571,133.972946 386.869202,134.004898 
	C379.279999,134.055695 371.680420,133.801529 364.107025,134.149734 
	C362.081451,134.242874 360.134888,136.054459 358.152069,137.077118 
	C358.152069,137.077118 358.092041,137.112061 357.871185,137.211884 
	C357.389557,137.512253 357.188293,137.760971 357.046539,138.057831 
	C357.046539,138.057831 357.002625,138.005768 356.843262,138.176071 
	C356.447571,138.570496 356.235535,138.815689 356.047821,139.081955 
	C356.047821,139.081955 356.065247,139.020493 355.804626,139.281372 
	C355.069031,141.148163 354.594116,142.754044 354.094513,144.805450 
	C354.018646,180.829727 353.956970,216.408463 353.954254,251.987213 
	C353.954163,253.418854 354.512024,254.850525 354.809937,256.282166 
	C353.200928,263.388824 349.724518,269.785248 343.290497,272.914459 
	C338.060486,275.458069 331.726593,275.731934 325.354858,277.127869 
	C320.058929,291.557953 307.727753,298.549744 295.407318,298.011261 
	C285.927032,297.596893 273.586182,290.509277 269.849457,277.109863 
	C267.945923,275.905487 266.276703,274.996765 264.598694,274.980225 
	C252.988266,274.865631 241.375656,274.895172 229.764786,274.997467 
	C228.191055,275.011292 226.623154,275.688904 225.052551,276.059174 
	C222.390106,286.497620 215.915527,293.994598 205.766281,296.906219 
	C191.280457,301.061981 176.069748,295.843445 169.767288,279.485046 
	C165.783524,269.144989 167.047241,259.856079 173.472687,251.008179 
	C179.419434,242.819458 191.129990,238.494263 200.802475,240.398926 
	C213.238998,242.847900 220.812210,250.407883 225.375122,262.490936 
	C226.457733,263.362091 227.208160,263.909241 227.961716,263.913544 
	C240.581558,263.985596 253.201904,264.016602 265.821716,263.961243 
	C266.898438,263.956512 267.972229,263.276550 269.047363,262.910248 
	C269.047363,262.910248 268.975189,263.020355 269.232635,262.845459 
	C271.977234,258.089905 274.464386,253.509232 276.951538,248.928574 
	C276.951538,248.928574 276.989594,248.983688 277.244385,248.870605 
	C277.986084,248.149078 278.472961,247.540649 278.959869,246.932220 
	C278.959869,246.932220 278.999847,246.975601 279.182220,246.846100 
	C279.631409,246.510406 279.843475,246.258194 280.000763,245.959915 
	C280.000763,245.959915 280.007751,246.008087 280.363525,245.970032 
	C287.814178,244.280258 294.909119,242.628525 302.004028,240.976807 
	C302.743866,241.027145 303.483734,241.077499 304.766418,241.329559 
	C305.554077,241.730698 305.825562,241.882431 306.123657,241.986511 
	C306.123657,241.986511 306.553314,242.072479 307.002045,242.294312 
	C307.989471,242.682297 308.528198,242.848450 309.066895,243.014618 
	C309.066895,243.014618 309.501038,243.085892 309.891846,243.301437 
	C310.529419,243.725388 310.804352,243.885406 311.107422,243.997040 
M307.963531,280.998291 
	C307.963531,280.998291 307.882782,280.965271 308.473785,280.725983 
	C308.968781,280.070190 309.463776,279.414398 310.324036,278.131439 
	C316.464874,268.125824 312.133148,257.545715 302.212738,253.953033 
	C298.868408,252.741898 293.873383,253.172882 290.727570,254.875793 
	C281.252930,260.004608 278.907074,267.031158 283.337189,278.316132 
	C283.588257,278.540894 283.839294,278.765656 284.513092,279.137726 
	C284.776672,279.309143 284.947510,279.547119 285.320648,280.301270 
	C285.598877,280.524048 285.877106,280.746826 286.567932,281.140961 
	C286.833191,281.322906 286.976593,281.574341 287.297943,282.326172 
	C287.565125,282.550323 287.832306,282.774475 288.485901,283.048981 
	C288.485901,283.048981 288.860107,283.157715 289.240753,283.485687 
	C289.527954,283.654999 289.815186,283.824310 290.515839,284.101654 
	C290.515839,284.101654 290.926270,284.220551 291.274261,284.537842 
	C291.522430,284.735840 291.797852,284.882690 292.756531,285.044342 
	C293.190338,285.108276 293.624115,285.172180 294.382141,285.424866 
	C294.846252,285.389557 295.310364,285.354248 296.529938,285.151367 
	C297.043274,285.183228 297.556610,285.215088 298.544312,285.465027 
	C299.339417,285.290375 300.134521,285.115723 300.957947,284.984802 
	C300.957947,284.984802 300.946350,284.941071 301.706940,284.947784 
	C303.456207,283.924866 305.205475,282.901947 306.996948,281.948273 
	C306.996948,281.948273 306.927643,281.990356 307.326630,281.677216 
	C307.549896,281.423950 307.773163,281.170715 307.963531,280.998291 
M210.928894,276.190094 
	C213.978943,268.561646 212.543350,261.644409 206.779251,256.195679 
	C201.773010,251.463318 192.545776,251.827286 185.703781,257.027008 
	C177.948013,262.921143 179.718475,278.903503 188.373734,283.176117 
	C196.428436,287.152283 204.690445,284.355652 210.928894,276.190094 
z"/>
<path fill="#E55427" opacity="1.000000" stroke="none" 
	d="
M170.965363,204.964417 
	C166.523376,201.928101 162.079956,198.893890 157.639847,195.854828 
	C154.028534,193.383011 153.020538,189.733337 154.654907,186.055405 
	C155.571152,183.993500 158.114471,182.496994 160.200058,181.182693 
	C161.159943,180.577789 162.780975,181.022034 164.543152,180.987213 
	C164.984070,180.983887 165.038422,181.036621 164.869995,181.325150 
	C159.151016,185.958160 159.092636,186.308670 162.550568,192.066666 
	C162.873657,192.604660 162.854630,193.348129 162.967010,194.014664 
	C162.939560,194.033142 163.003876,194.005615 163.290802,193.950226 
	C164.476135,194.057480 165.634201,193.919037 166.229843,194.432739 
	C169.553986,197.299484 172.639160,200.454666 176.079422,203.164093 
	C176.642120,203.607239 178.531357,202.157196 179.869141,201.882660 
	C181.259399,201.597366 182.780273,201.392578 184.144287,201.660461 
	C186.420059,202.107391 188.597488,203.463486 190.849640,203.547913 
	C198.456711,203.833176 206.082199,203.859070 213.690811,203.641098 
	C214.948349,203.605057 216.316788,201.987808 217.327484,200.833038 
	C217.933823,200.140259 217.945923,198.927353 218.380493,197.403259 
	C221.729935,203.991974 221.729935,203.996918 229.125702,203.997635 
	C251.611740,203.999832 274.100586,204.198868 296.582245,203.884705 
	C304.102295,203.779617 312.148926,206.092270 318.775146,199.268036 
	C320.872406,197.108109 323.199799,196.553238 319.267822,192.579453 
	C322.563721,193.273407 324.279419,193.634644 325.824768,194.062515 
	C325.517487,194.413300 325.380585,194.697464 325.243683,194.981644 
	C325.497162,194.656036 325.750610,194.330444 326.371338,193.986923 
	C331.854462,193.742767 330.433167,190.083221 329.769745,187.441162 
	C329.376312,185.874435 327.584167,184.658951 326.420929,183.285522 
	C326.061310,183.627228 325.701721,183.968918 325.342102,184.310608 
	C325.161316,186.249084 324.980530,188.187561 324.708099,191.108932 
	C322.146149,188.817642 320.485107,187.332108 318.933197,185.944138 
	C319.860962,183.059570 320.857086,180.443573 321.483765,177.741898 
	C321.691376,176.846741 320.948334,175.731064 320.639893,174.716202 
	C319.753082,175.237015 318.817535,175.690674 317.989044,176.291916 
	C315.951660,177.770416 313.963531,179.316833 311.975342,180.443832 
	C311.770203,178.032227 311.545319,176.012756 311.575958,174.113525 
	C314.536011,176.045197 316.013275,174.380600 316.416046,172.089767 
	C316.667114,170.661636 315.617432,169.004822 315.151459,167.450623 
	C313.926025,168.674332 312.690125,169.887863 311.484802,171.131058 
	C311.265839,171.356888 311.171967,171.704010 310.681824,171.818741 
	C309.595551,169.497330 308.755280,167.379547 308.114441,165.203064 
	C302.029755,144.538345 287.963562,131.542877 268.428040,123.764336 
	C264.573914,122.229706 260.752838,120.611931 257.210876,118.925995 
	C259.333160,118.552353 261.161102,118.285217 263.165009,118.222229 
	C264.107178,118.382256 264.873413,118.338120 265.639618,118.293983 
	C265.494720,117.699608 265.349823,117.105240 265.204926,116.510864 
	C264.475494,116.995094 263.746094,117.479324 262.879395,117.646088 
	C259.373688,111.642410 253.405426,111.315247 247.579575,110.196182 
	C248.269547,112.247902 249.578781,113.513519 250.860947,114.806000 
	C252.263855,116.220200 253.641739,117.659241 254.822601,119.404442 
	C252.416138,119.413071 250.217575,119.104721 248.101898,118.559380 
	C247.904678,117.763466 247.624619,117.204536 247.344543,116.645599 
	C246.891083,117.365280 246.437622,118.084969 245.540741,118.871353 
	C240.235947,119.528084 235.292343,119.747314 230.533951,120.802032 
	C224.584335,122.120811 218.787003,124.126595 212.947083,125.478340 
	C213.845535,123.998695 214.498886,122.358459 215.644638,121.867630 
	C217.709045,120.983231 220.078445,120.829262 222.302521,120.295502 
	C228.515732,118.804344 234.719788,117.275017 241.292953,115.671600 
	C240.819351,111.525650 235.918121,112.320297 232.842178,110.803825 
	C230.529251,109.663528 228.466248,110.054802 227.337265,113.089149 
	C226.934341,114.172058 224.393265,115.645088 223.849442,115.305336 
	C218.768326,112.130898 214.755341,113.389214 211.108292,117.608025 
	C210.733780,118.041275 209.912354,118.280838 209.296921,118.283447 
	C202.993988,118.310112 199.165344,121.453270 198.111725,125.983223 
	C195.043945,127.802879 192.816711,128.648804 191.218109,130.159790 
	C186.079941,135.016327 181.173904,140.118454 176.132523,145.093491 
	C176.086716,145.061127 175.995209,144.996292 175.995209,144.996292 
	C180.622559,134.576126 189.029846,127.627304 197.901947,121.090630 
	C208.721191,113.119370 221.174774,109.730522 234.235443,107.974518 
	C235.113113,107.856506 235.932693,107.306595 236.078690,107.246399 
	C234.097549,105.584976 230.839325,104.211754 230.339020,102.164543 
	C229.102310,97.104004 230.188202,92.028870 234.417847,88.282700 
	C240.371933,83.009224 254.010483,83.444519 258.558716,92.575340 
	C260.138367,95.746643 259.713715,100.260025 259.111420,103.983627 
	C258.907288,105.245453 255.340118,105.963287 252.952164,107.099945 
	C253.735367,107.647194 254.494766,108.533279 255.419174,108.767120 
	C262.370880,110.525612 269.547424,111.600159 276.291229,113.935295 
	C293.106293,119.757729 304.612152,132.138306 313.974335,146.609070 
	C316.978943,151.253143 320.651001,156.802338 320.493530,161.826996 
	C320.282379,168.566391 325.455078,173.668457 323.718475,180.487061 
	C325.015839,180.713791 326.021423,180.682510 326.829224,181.066895 
	C330.144775,182.644623 334.148010,183.596573 334.038086,188.542206 
	C333.936707,193.104034 331.478180,195.262955 327.381409,197.145035 
	C323.734314,198.820541 320.898376,202.261719 316.882904,204.954193 
	C267.696045,204.977982 219.330704,204.971207 170.965363,204.964417 
M310.548950,155.625031 
	C309.879089,156.406387 309.209198,157.187744 308.539337,157.969101 
	C309.076111,158.334702 309.612915,158.700302 310.149689,159.065903 
	C310.356293,158.098160 310.562897,157.130432 310.548950,155.625031 
z"/>
<path fill="#E45225" opacity="1.000000" stroke="none" 
	d="
M85.252678,331.258911 
	C85.644867,331.219147 86.037056,331.179382 87.065384,331.331390 
	C90.135902,331.416931 92.570282,331.310699 95.004669,331.204468 
	C96.622955,332.582855 98.921906,333.640869 99.746590,335.392822 
	C104.329475,345.128448 108.550766,355.034149 112.915268,364.873016 
	C113.091225,365.269684 113.463120,365.579437 114.151413,366.438568 
	C117.517921,359.297150 120.696953,352.517273 123.915924,345.756439 
	C124.535660,344.454803 125.685219,343.302673 125.956085,341.954193 
	C127.833580,332.607178 133.527451,329.315399 143.080215,331.298004 
	C143.560760,331.480835 143.571701,331.737762 143.441406,332.143738 
	C143.201538,348.803162 143.232040,365.059937 142.850494,381.307037 
	C142.783463,384.161743 140.989868,386.975922 139.993637,389.808807 
	C137.866135,389.808807 135.738632,389.808807 133.120514,389.808807 
	C133.120514,378.075623 133.120514,366.561279 133.120514,355.046936 
	C132.778351,354.950806 132.436172,354.854706 132.094009,354.758575 
	C130.064865,358.497192 127.943016,362.189240 126.035812,365.989014 
	C124.496773,369.055359 123.064529,372.194458 121.858543,375.404114 
	C120.164696,379.912201 117.137703,382.135773 112.416122,380.839508 
	C110.511780,380.316681 108.154060,379.014984 107.333061,377.393982 
	C103.635040,370.092590 100.414291,362.549500 97.046944,354.477081 
	C96.474434,353.605255 95.876488,353.349884 95.055161,353.438812 
	C94.559601,362.536346 94.137390,371.288666 94.082870,380.043274 
	C94.058128,384.015747 93.946373,387.655518 89.969246,389.832306 
	C89.230972,389.867798 88.492699,389.903320 87.289581,389.481079 
	C86.548584,386.561829 86.048035,384.101685 86.033463,381.638641 
	C85.951866,367.855286 86.027802,354.070984 85.946030,340.287628 
	C85.931458,337.831146 85.429092,335.377533 85.135498,332.644470 
	C85.163582,331.997223 85.208130,331.628052 85.252678,331.258911 
z"/>
<path fill="#E05227" opacity="1.000000" stroke="none" 
	d="
M287.484619,342.128174 
	C276.791138,338.261505 264.971375,349.420410 267.040497,361.064240 
	C267.738312,364.990845 268.896423,368.841034 269.945465,372.698608 
	C271.413361,378.096344 276.340027,379.137726 280.627655,380.777252 
	C283.764069,381.976593 290.279907,378.501556 293.045227,374.559784 
	C295.738861,370.720215 302.754761,370.242279 305.263947,374.138062 
	C306.063324,375.379211 305.487213,378.403320 304.444672,379.784271 
	C298.836884,387.212463 291.830750,390.920593 281.837341,390.241364 
	C268.114441,389.308655 258.338318,383.752625 255.749115,370.845886 
	C253.170013,357.989563 253.673050,344.659271 265.119202,335.522430 
	C272.260956,329.821564 281.014618,328.849182 290.198975,331.553558 
	C298.496582,333.996796 303.449524,339.159851 306.177582,347.156555 
	C304.790344,347.855042 303.654816,348.385254 302.557983,348.986115 
	C297.215240,351.912537 295.576599,351.470795 292.215576,346.702332 
	C291.039215,345.033356 289.326355,343.742523 287.484619,342.128174 
z"/>
<path fill="#E05227" opacity="1.000000" stroke="none" 
	d="
M188.603790,379.170837 
	C188.766861,380.940796 189.175491,383.000153 188.330109,384.021851 
	C181.200027,392.639252 165.262085,393.699219 156.198563,385.011292 
	C147.735886,376.899353 148.447739,359.360840 153.939011,352.410217 
	C157.905914,347.389069 169.140167,342.310669 176.366669,346.253021 
	C179.267548,347.835602 182.202545,349.434784 184.841095,351.403015 
	C190.820374,355.863342 189.969894,362.517273 189.990738,368.825684 
	C190.001266,372.011383 187.714890,371.951935 185.456116,371.946899 
	C177.826431,371.929810 170.196671,371.940369 162.617355,371.940369 
	C161.808777,377.799469 165.619720,381.893738 171.056442,380.928131 
	C173.661255,380.465485 176.026154,378.385376 178.608109,378.128815 
	C181.768707,377.814758 185.042953,378.644226 188.603790,379.170837 
M172.303055,363.996521 
	C174.988312,363.615997 179.513626,365.420563 178.463028,360.096832 
	C177.831955,356.898987 172.561890,354.405548 169.598999,355.099030 
	C165.155060,356.139221 162.086853,359.751160 162.546936,363.995575 
	C165.468246,363.995575 168.423721,363.995575 172.303055,363.996521 
z"/>
<path fill="#E05227" opacity="1.000000" stroke="none" 
	d="
M345.896637,389.763245 
	C342.378937,389.234863 338.873688,388.550751 335.336334,388.268036 
	C334.197357,388.177002 332.989105,389.185760 331.786407,389.618683 
	C325.573578,391.854980 319.584961,391.885681 314.138092,387.589996 
	C307.342804,382.230927 308.237854,369.634796 316.089539,366.202820 
	C320.462280,364.291443 325.598053,364.177124 330.328430,363.004669 
	C331.982361,362.594727 333.452026,361.441620 335.005859,360.627869 
	C333.677673,359.059479 332.499969,356.375031 330.987823,356.171112 
	C328.393890,355.821381 325.150787,356.337891 322.981842,357.735107 
	C319.935760,359.697357 313.597626,359.310608 312.089630,355.991577 
	C311.649689,355.023193 311.734680,353.439117 312.238190,352.485077 
	C314.351624,348.480469 321.854370,345.217712 326.491821,345.789673 
	C329.373657,346.145142 332.429626,345.589355 335.193939,346.287659 
	C340.164734,347.543365 344.307953,350.270752 346.445801,355.900696 
	C346.199982,367.646881 346.048309,378.705048 345.896637,389.763245 
M330.867279,371.053345 
	C328.536804,371.688721 325.997986,371.950775 323.950745,373.093506 
	C322.633850,373.828583 321.394409,375.829376 321.327576,377.317078 
	C321.275055,378.485992 322.833984,380.390289 324.085083,380.844788 
	C331.059265,383.378387 336.530701,378.775543 335.513031,371.008850 
	C334.290405,371.008850 333.008392,371.008850 330.867279,371.053345 
z"/>
<path fill="#E15126" opacity="1.000000" stroke="none" 
	d="
M228.986557,388.780884 
	C226.197723,388.555725 223.410080,388.313782 220.619400,388.114319 
	C219.626877,388.043365 218.587112,387.889496 217.637344,388.092957 
	C213.574173,388.963318 209.503311,390.856415 205.496643,390.708862 
	C197.424667,390.411652 194.401840,386.061890 193.195114,378.386139 
	C192.251099,372.381317 196.988068,366.461334 203.237030,365.121338 
	C207.570160,364.192139 212.015442,363.795105 216.371796,362.958252 
	C217.318893,362.776337 218.865021,361.657562 218.810471,361.099884 
	C218.664383,359.606293 218.166061,357.805634 217.142654,356.811707 
	C215.126892,354.854126 208.168472,355.497498 206.745255,357.918152 
	C204.943817,360.982178 202.934021,360.315399 200.590012,359.177521 
	C198.726120,358.272675 196.893829,357.302734 194.999573,356.337280 
	C196.161545,349.809052 201.201340,348.023895 206.215347,346.411194 
	C213.496216,344.069519 224.027512,346.877350 228.024185,352.138580 
	C228.632034,352.938751 228.668549,354.172913 228.977737,355.985168 
	C228.994186,357.798828 229.002228,358.833618 229.006836,360.345032 
	C229.335541,367.238647 229.667648,373.655640 230.001740,380.393494 
	C229.993759,381.143921 229.983795,381.573486 229.796509,382.335693 
	C229.408310,384.705811 229.197433,386.743378 228.986557,388.780884 
M205.521362,375.132935 
	C206.263733,377.069580 206.704285,380.427032 207.808212,380.661530 
	C210.515991,381.236694 214.115753,381.266083 216.268295,379.854950 
	C218.822845,378.180176 221.246475,375.089630 218.878799,369.836456 
	C214.560364,371.431885 210.314163,373.000641 205.521362,375.132935 
z"/>
<path fill="#E15126" opacity="1.000000" stroke="none" 
	d="
M403.711365,378.992462 
	C405.358490,379.613098 407.071838,380.895416 408.641083,380.738281 
	C414.975555,380.104034 415.466705,384.550598 416.826843,390.013489 
	C410.642822,390.013489 404.886017,390.558533 399.290100,389.843964 
	C394.669983,389.253998 392.102081,384.089264 392.041504,377.467407 
	C391.977814,370.505402 392.027252,363.542328 392.027252,356.670288 
	C385.653961,355.067352 385.653961,355.067352 386.321381,347.273804 
	C393.599915,348.494537 392.179688,342.930603 391.912842,339.173096 
	C391.505096,333.430603 395.022095,334.206909 398.555481,334.075745 
	C402.788818,333.918610 404.173279,335.984558 403.915100,339.877502 
	C403.773651,342.010590 403.889832,344.160736 403.889832,346.849823 
	C407.590363,346.849823 410.986938,346.849823 414.675354,346.849823 
	C414.675354,349.971954 414.675354,352.562958 414.675354,356.016418 
	C411.527435,356.016418 408.283386,356.016418 404.259796,356.236603 
	C401.191101,363.992950 400.907715,371.508545 403.711365,378.992462 
z"/>
<path fill="#E45225" opacity="1.000000" stroke="none" 
	d="
M249.003494,388.949493 
	C245.689560,389.428070 242.375626,389.906677 237.951050,390.545685 
	C237.951050,369.788574 237.951050,349.803436 237.951050,329.297913 
	C240.767609,328.940765 244.294693,328.493500 248.304764,328.336426 
	C248.787750,328.626648 248.765030,328.955048 248.603363,329.335022 
	C248.342514,348.410980 248.233994,367.106934 248.176712,385.803040 
	C248.174316,386.586884 248.649307,387.372162 248.950150,388.352020 
	C248.998398,388.547272 249.003494,388.949493 249.003494,388.949493 
z"/>
<path fill="#E45225" opacity="1.000000" stroke="none" 
	d="
M355.789032,348.103943 
	C358.772552,347.839905 362.403290,346.404236 364.577545,347.605255 
	C367.362701,349.143677 368.613068,348.113342 370.563354,346.977020 
	C372.219482,346.012085 374.058014,344.733826 375.820984,344.725861 
	C378.443176,344.713989 382.152557,344.613464 381.858734,348.778900 
	C381.636566,351.928558 384.489502,357.309296 377.557404,356.927429 
	C372.377533,356.642059 369.455383,359.593170 366.751556,363.973816 
	C366.310425,364.642487 366.130981,364.838654 365.757111,365.391357 
	C365.375977,368.213135 365.144196,370.663452 364.980835,373.118378 
	C364.609894,378.693176 364.272583,384.270203 363.921631,389.846344 
	C361.588928,389.868347 359.256226,389.890320 356.455872,389.385071 
	C355.921814,375.273224 355.855438,361.688568 355.789032,348.103943 
z"/>
<path fill="#FFC7A9" opacity="1.000000" stroke="none" 
	d="
M342.808044,217.862122 
	C342.808044,217.862122 342.360443,217.936188 341.689270,217.977478 
	C322.066559,218.011780 303.115051,217.983307 284.163574,218.002182 
	C243.104431,218.043076 202.045319,218.108185 160.620621,218.093903 
	C159.516327,217.936752 158.777618,217.849075 158.038895,217.761414 
	C160.265961,217.505051 162.492889,217.026413 164.720139,217.024826 
	C222.046249,216.983902 279.372406,216.992706 336.698547,216.992889 
	C338.321289,216.992905 339.944031,216.992905 342.230865,216.992905 
	C342.230865,190.488098 342.230865,164.380310 342.630981,138.069855 
	C343.071777,138.057190 343.112396,138.247192 343.126068,139.184311 
	C343.074036,143.261810 343.036835,146.592163 343.025726,149.922607 
	C342.950073,172.569107 342.879944,195.215622 342.808044,217.862122 
z"/>
<path fill="#EEAA93" opacity="1.000000" stroke="none" 
	d="
M171.164337,205.358521 
	C219.330704,204.971207 267.696045,204.977982 316.530212,204.975372 
	C316.013855,205.309357 315.028900,205.952255 314.043396,205.953171 
	C266.974670,205.996948 219.905945,205.985870 172.837204,205.970291 
	C172.345886,205.970123 171.854599,205.828293 171.164337,205.358521 
z"/>
<path fill="#CF5738" opacity="1.000000" stroke="none" 
	d="
M154.628906,220.218384 
	C155.693100,228.798065 156.921829,229.965591 165.590271,230.011749 
	C168.751495,230.028595 171.912918,230.005447 176.009735,229.993317 
	C185.603470,229.971466 194.261734,229.956848 202.919983,229.942245 
	C211.934235,229.969284 220.948502,229.996307 230.880829,230.020874 
	C234.189621,230.009216 236.580322,230.000061 238.971024,229.990891 
	C239.150894,229.991501 239.330765,229.992096 240.237213,229.997650 
	C245.297211,230.361252 249.630646,230.719864 253.964066,231.078491 
	C223.875259,231.055634 193.786453,231.040909 163.697662,231.005325 
	C153.807922,230.993622 153.439850,230.555969 154.628906,220.218384 
z"/>
<path fill="#ED8C6D" opacity="1.000000" stroke="none" 
	d="
M354.907898,255.796097 
	C354.512024,254.850525 353.954163,253.418854 353.954254,251.987213 
	C353.956970,216.408463 354.018646,180.829727 354.376556,144.774872 
	C355.062012,144.276260 355.440735,144.253738 355.819458,144.231232 
	C355.546112,146.164001 355.036896,148.096451 355.034393,150.029572 
	C354.988556,185.123016 355.003754,220.216522 354.907898,255.796097 
z"/>
<path fill="#DE421A" opacity="1.000000" stroke="none" 
	d="
M254.423859,231.046707 
	C249.630646,230.719864 245.297211,230.361252 240.506958,229.992966 
	C242.147675,229.652786 244.244476,229.040558 246.342911,229.034927 
	C270.038086,228.971283 293.733643,228.970612 317.428711,229.058151 
	C319.480438,229.065720 321.529419,229.820404 323.814728,230.524872 
	C318.695648,230.856247 313.341522,230.890823 307.141296,230.696564 
	C297.243561,230.311188 288.191895,230.040924 279.140381,230.044601 
	C274.396820,230.046524 269.653503,230.528976 264.910065,230.794434 
	C261.567932,230.867935 258.225769,230.941437 254.423859,231.046707 
z"/>
<path fill="#E55427" opacity="1.000000" stroke="none" 
	d="
M164.956863,180.957550 
	C164.613190,167.934555 168.780411,156.246674 175.668976,145.127106 
	C175.995209,144.996292 176.086716,145.061127 176.130066,145.445251 
	C175.822098,148.039185 175.787521,150.360336 175.057480,152.437012 
	C173.196609,157.730362 170.901291,162.870377 169.017242,168.156357 
	C167.509949,172.385254 166.351624,176.738541 165.038422,181.036621 
	C165.038422,181.036621 164.984070,180.983887 164.956863,180.957550 
z"/>
<path fill="#C94A24" opacity="1.000000" stroke="none" 
	d="
M358.571259,137.082367 
	C360.134888,136.054459 362.081451,134.242874 364.107025,134.149734 
	C371.680420,133.801529 379.279999,134.055695 386.869202,134.004898 
	C391.641571,133.972946 394.822327,132.029068 394.985962,126.361343 
	C395.578949,127.503380 397.039612,129.930878 396.551147,130.422729 
	C394.401947,132.586914 391.802612,135.528748 389.161194,135.751114 
	C381.056610,136.433441 372.856720,135.928177 364.696136,136.043045 
	C362.789703,136.069885 360.892120,136.722778 358.571259,137.082367 
z"/>
<path fill="#BB4D2B" opacity="1.000000" stroke="none" 
	d="
M140.364731,389.886353 
	C140.989868,386.975922 142.783463,384.161743 142.850494,381.307037 
	C143.232040,365.059937 143.201538,348.803162 143.628601,332.611725 
	C144.005524,351.444305 144.064957,370.214844 144.124390,388.985413 
	C142.994873,389.311554 141.865356,389.637726 140.364731,389.886353 
z"/>
<path fill="#FEE6D0" opacity="1.000000" stroke="none" 
	d="
M248.765030,328.955048 
	C248.765030,328.955048 248.787750,328.626648 248.686005,328.497253 
	C249.056686,329.079559 249.940994,329.790924 249.941513,330.502960 
	C249.955811,349.877655 249.879807,369.252411 249.411209,388.788330 
	C249.003494,388.949493 248.998398,388.547272 249.058502,387.877197 
	C249.084167,385.216064 249.028748,383.225067 249.018555,381.233826 
	C248.929459,363.807587 248.848450,346.381317 248.765030,328.955048 
z"/>
<path fill="#C94A24" opacity="1.000000" stroke="none" 
	d="
M85.151955,332.922607 
	C85.429092,335.377533 85.931458,337.831146 85.946030,340.287628 
	C86.027802,354.070984 85.951866,367.855286 86.033463,381.638641 
	C86.048035,384.101685 86.548584,386.561829 86.924423,389.417664 
	C86.590179,389.851227 86.156242,389.890472 85.368423,389.403198 
	C85.060349,370.225311 85.106155,351.573944 85.151955,332.922607 
z"/>
<path fill="#D98466" opacity="1.000000" stroke="none" 
	d="
M85.135498,332.644470 
	C85.106155,351.573944 85.060349,370.225311 85.047836,389.329926 
	C84.736877,389.332458 84.090622,388.880890 84.091843,388.431091 
	C84.143440,369.408051 84.252785,350.385193 84.803833,331.310608 
	C85.208130,331.628052 85.163582,331.997223 85.135498,332.644470 
z"/>
<path fill="#FFC7A9" opacity="1.000000" stroke="none" 
	d="
M144.494293,388.766235 
	C144.064957,370.214844 144.005524,351.444305 143.758896,332.205750 
	C143.571701,331.737762 143.560760,331.480835 143.502625,331.365570 
	C143.959320,332.156738 144.920761,333.062073 144.923080,333.969818 
	C144.969696,352.162048 144.905792,370.354614 144.494293,388.766235 
z"/>
<path fill="#D98466" opacity="1.000000" stroke="none" 
	d="
M225.516403,276.035522 
	C226.623154,275.688904 228.191055,275.011292 229.764786,274.997467 
	C241.375656,274.895172 252.988266,274.865631 264.598694,274.980225 
	C266.276703,274.996765 267.945923,275.905487 269.824707,276.737854 
	C268.302216,276.715881 266.576111,276.057800 264.845886,276.046661 
	C251.891144,275.963226 238.935562,276.007568 225.516403,276.035522 
z"/>
<path fill="#C94A24" opacity="1.000000" stroke="none" 
	d="
M90.355804,389.908142 
	C93.946373,387.655518 94.058128,384.015747 94.082870,380.043274 
	C94.137390,371.288666 94.559601,362.536346 94.969139,353.893677 
	C95.076080,365.657013 95.045654,377.309753 95.015221,388.962494 
	C93.590935,389.302979 92.166649,389.643463 90.355804,389.908142 
z"/>
<path fill="#C94A24" opacity="1.000000" stroke="none" 
	d="
M403.805115,378.532898 
	C400.907715,371.508545 401.191101,363.992950 403.808899,356.260315 
	C404.057983,363.400330 403.978424,370.736816 403.805115,378.532898 
z"/>
<path fill="#ED8C6D" opacity="1.000000" stroke="none" 
	d="
M268.574036,262.951141 
	C267.972229,263.276550 266.898438,263.956512 265.821716,263.961243 
	C253.201904,264.016602 240.581558,263.985596 227.961716,263.913544 
	C227.208160,263.909241 226.457733,263.362091 225.359299,262.846100 
	C239.375397,262.747131 253.738037,262.869598 268.574036,262.951141 
z"/>
<path fill="#D98466" opacity="1.000000" stroke="none" 
	d="
M355.484070,348.375793 
	C355.855438,361.688568 355.921814,375.273224 356.024597,389.310242 
	C355.721924,388.962585 355.088837,388.162964 355.087799,387.362457 
	C355.070709,374.457581 355.134033,361.552582 355.484070,348.375793 
z"/>
<path fill="#CF5738" opacity="1.000000" stroke="none" 
	d="
M265.381165,230.881836 
	C269.653503,230.528976 274.396820,230.046524 279.140381,230.044601 
	C288.191895,230.040924 297.243561,230.311188 306.682495,230.627518 
	C293.330658,230.847931 279.591461,230.908585 265.381165,230.881836 
z"/>
<path fill="#C94A24" opacity="1.000000" stroke="none" 
	d="
M342.110779,232.433716 
	C342.778412,233.764343 343.911896,235.572739 343.873962,237.356201 
	C343.766022,242.428696 343.180298,247.491043 342.486938,252.785187 
	C342.141388,246.308701 342.091553,239.604401 342.110779,232.433716 
z"/>
<path fill="#EEAA93" opacity="1.000000" stroke="none" 
	d="
M95.409897,388.776917 
	C95.045654,377.309753 95.076080,365.657013 95.192520,353.549377 
	C95.876488,353.349884 96.474434,353.605255 97.090668,354.126709 
	C96.739357,355.746979 96.069038,357.096558 96.048210,358.456055 
	C95.894279,368.500031 95.869774,378.545990 95.409897,388.776917 
z"/>
<path fill="#CF5738" opacity="1.000000" stroke="none" 
	d="
M375.107727,123.127357 
	C369.037537,123.101654 362.967377,123.075943 356.427948,123.005753 
	C356.649872,122.624069 357.342133,121.991272 358.032074,121.993782 
	C369.259277,122.034546 380.486237,122.155754 391.950531,122.642891 
	C391.975525,123.060463 391.763184,123.093933 391.009552,123.146088 
	C390.468231,123.164780 390.023468,123.152489 390.023468,123.152489 
	C386.640503,123.136444 383.257568,123.120407 379.028381,123.093124 
	C377.157379,123.097038 376.132538,123.112198 375.107727,123.127357 
z"/>
<path fill="#D98466" opacity="1.000000" stroke="none" 
	d="
M346.306580,389.626740 
	C346.048309,378.705048 346.199982,367.646881 346.554688,356.211975 
	C346.743958,367.053558 346.730225,378.271912 346.306580,389.626740 
z"/>
<path fill="#CF5738" opacity="1.000000" stroke="none" 
	d="
M301.754333,240.637909 
	C294.909119,242.628525 287.814178,244.280258 280.342224,245.958252 
	C285.953064,239.573593 293.674316,239.729706 301.754333,240.637909 
z"/>
<path fill="#CF5738" opacity="1.000000" stroke="none" 
	d="
M276.586121,248.950836 
	C274.464386,253.509232 271.977234,258.089905 269.177551,262.809448 
	C271.316925,258.289917 273.768829,253.631516 276.586121,248.950836 
z"/>
<path fill="#BB4D2B" opacity="1.000000" stroke="none" 
	d="
M364.241028,389.903076 
	C364.272583,384.270203 364.609894,378.693176 364.980835,373.118378 
	C365.144196,370.663452 365.375977,368.213135 365.774170,365.857452 
	C366.000031,373.629211 366.028442,381.304230 366.056854,388.979248 
	C365.558044,389.306122 365.059204,389.632965 364.241028,389.903076 
z"/>
<path fill="#FFC7A9" opacity="1.000000" stroke="none" 
	d="
M366.447998,388.788330 
	C366.028442,381.304230 366.000031,373.629211 365.954590,365.488098 
	C366.130981,364.838654 366.310425,364.642487 366.641785,364.323486 
	C366.818207,372.341461 366.828674,380.469421 366.447998,388.788330 
z"/>
<path fill="#DE421A" opacity="1.000000" stroke="none" 
	d="
M229.999756,380.072632 
	C229.667648,373.655640 229.335541,367.238647 229.192841,360.725586 
	C229.848175,365.428680 230.314087,370.227844 230.779984,375.027039 
	C230.821381,376.390961 230.862793,377.754852 230.646545,379.558228 
	C230.388885,379.997650 229.999756,380.072632 229.999756,380.072632 
z"/>
<path fill="#CF5738" opacity="1.000000" stroke="none" 
	d="
M230.867523,374.562744 
	C230.314087,370.227844 229.848175,365.428680 229.196274,360.248962 
	C229.002228,358.833618 228.994186,357.798828 228.995026,356.373260 
	C229.659866,357.538361 230.790985,359.067169 230.881210,360.655182 
	C231.135071,365.123260 230.960632,369.615662 230.867523,374.562744 
z"/>
<path fill="#DE421A" opacity="1.000000" stroke="none" 
	d="
M325.415253,230.900375 
	C328.010193,227.964935 331.263489,228.534500 334.810425,230.544937 
	C331.979950,230.878372 328.924530,230.924347 325.415253,230.900375 
z"/>
<path fill="#DE421A" opacity="1.000000" stroke="none" 
	d="
M229.343033,388.820496 
	C229.197433,386.743378 229.408310,384.705811 229.811340,382.679932 
	C230.262695,383.792694 230.521881,384.893799 230.781067,385.994873 
	C230.420532,386.949951 230.060028,387.905029 229.343033,388.820496 
z"/>
<path fill="#C94A24" opacity="1.000000" stroke="none" 
	d="
M355.868866,143.801819 
	C355.440735,144.253738 355.062012,144.276260 354.401245,144.329346 
	C354.594116,142.754044 355.069031,141.148163 355.822510,139.307831 
	C356.040131,140.506409 355.979218,141.939392 355.868866,143.801819 
z"/>
<path fill="#CF5738" opacity="1.000000" stroke="none" 
	d="
M157.746567,217.923828 
	C158.777618,217.849075 159.516327,217.936752 160.621918,218.311340 
	C160.988770,218.598236 160.989624,219.033142 160.989624,219.033142 
	C159.239670,219.348541 157.489700,219.663940 155.355774,219.972046 
	C155.799301,219.338577 156.626770,218.712418 157.746567,217.923828 
z"/>
<path fill="#C94A24" opacity="1.000000" stroke="none" 
	d="
M94.566788,331.122467 
	C92.570282,331.310699 90.135902,331.416931 87.359200,331.377502 
	C89.387558,331.168091 91.758224,331.104279 94.566788,331.122467 
z"/>
<path fill="#CF5738" opacity="1.000000" stroke="none" 
	d="
M230.875275,385.570435 
	C230.521881,384.893799 230.262695,383.792694 229.988663,382.347351 
	C229.983795,381.573486 229.993759,381.143921 230.001740,380.393494 
	C229.999756,380.072632 230.388885,379.997650 230.584259,379.964142 
	C230.842941,381.669098 230.906219,383.407562 230.875275,385.570435 
z"/>
<path fill="#CF5738" opacity="1.000000" stroke="none" 
	d="
M278.609253,246.948853 
	C278.472961,247.540649 277.986084,248.149078 277.213196,248.858459 
	C277.371002,248.294769 277.814789,247.630127 278.609253,246.948853 
z"/>
<path fill="#C94A24" opacity="1.000000" stroke="none" 
	d="
M341.698853,255.114685 
	C341.857819,255.596313 341.733337,256.215057 341.407013,256.936188 
	C341.275238,256.442993 341.345337,255.847397 341.698853,255.114685 
z"/>
<path fill="#CF5738" opacity="1.000000" stroke="none" 
	d="
M355.668762,122.944839 
	C355.474213,123.248817 354.940430,123.557098 354.100433,123.930061 
	C354.305969,123.646202 354.817749,123.297668 355.668762,122.944839 
z"/>
<path fill="#CF5738" opacity="1.000000" stroke="none" 
	d="
M308.928192,242.726669 
	C308.528198,242.848450 307.989471,242.682297 307.208862,242.366608 
	C307.574432,242.290955 308.181976,242.364838 308.928192,242.726669 
z"/>
<path fill="#CF5738" opacity="1.000000" stroke="none" 
	d="
M279.735046,246.016327 
	C279.843475,246.258194 279.631409,246.510406 279.152740,246.846725 
	C279.117035,246.675491 279.293182,246.374115 279.735046,246.016327 
z"/>
<path fill="#CF5738" opacity="1.000000" stroke="none" 
	d="
M306.031006,241.722153 
	C305.825562,241.882431 305.554077,241.730698 305.134521,241.374634 
	C305.285980,241.297943 305.612183,241.377869 306.031006,241.722153 
z"/>
<path fill="#CF5738" opacity="1.000000" stroke="none" 
	d="
M311.017822,243.727158 
	C310.804352,243.885406 310.529419,243.725388 310.105347,243.354401 
	C310.261444,243.280319 310.594818,243.368805 311.017822,243.727158 
z"/>
<path fill="#CF5738" opacity="1.000000" stroke="none" 
	d="
M312.970825,244.711029 
	C312.755768,244.879471 312.476807,244.731552 312.044067,244.376282 
	C312.202911,244.293747 312.541779,244.369003 312.970825,244.711029 
z"/>
<path fill="#C94A24" opacity="1.000000" stroke="none" 
	d="
M393.959930,123.688400 
	C393.760468,123.830635 393.519989,123.682541 393.158051,123.336334 
	C393.300659,123.273613 393.594788,123.360237 393.959930,123.688400 
z"/>
<path fill="#C94A24" opacity="1.000000" stroke="none" 
	d="
M394.853943,124.757675 
	C394.608795,124.816116 394.420074,124.598511 394.163605,124.163002 
	C394.340485,124.147232 394.611969,124.326080 394.853943,124.757675 
z"/>
<path fill="#CF5738" opacity="1.000000" stroke="none" 
	d="
M314.018951,245.718536 
	C313.842773,245.767822 313.577728,245.558395 313.160522,245.144974 
	C313.315582,245.113922 313.622833,245.286865 314.018951,245.718536 
z"/>
<path fill="#C94A24" opacity="1.000000" stroke="none" 
	d="
M357.282898,137.968948 
	C357.188293,137.760971 357.389557,137.512253 357.854370,137.181503 
	C357.878662,137.327576 357.698944,137.603821 357.282898,137.968948 
z"/>
<path fill="#C94A24" opacity="1.000000" stroke="none" 
	d="
M356.313019,139.020767 
	C356.235535,138.815689 356.447571,138.570496 356.872559,138.193283 
	C356.900208,138.346649 356.739227,138.653122 356.313019,139.020767 
z"/>
<path fill="#000000" opacity="1.000000" stroke="none" 
	d="
M210.776459,276.550598 
	C204.690445,284.355652 196.428436,287.152283 188.373734,283.176117 
	C179.718475,278.903503 177.948013,262.921143 185.703781,257.027008 
	C192.545776,251.827286 201.773010,251.463318 206.779251,256.195679 
	C212.543350,261.644409 213.978943,268.561646 210.776459,276.550598 
z"/>
<path fill="#000000" opacity="1.000000" stroke="none" 
	d="
M283.027527,277.915833 
	C278.907074,267.031158 281.252930,260.004608 290.727570,254.875793 
	C293.873383,253.172882 298.868408,252.741898 302.212738,253.953033 
	C312.133148,257.545715 316.464874,268.125824 309.788391,278.520752 
	C308.796112,279.595154 308.339447,280.280212 307.882751,280.965271 
	C307.882782,280.965271 307.963531,280.998291 307.720795,281.042603 
	C307.294586,281.388092 307.111115,281.689209 306.927643,281.990356 
	C306.927643,281.990356 306.996948,281.948273 306.616699,281.925415 
	C304.473083,282.915375 302.709717,283.928223 300.946350,284.941101 
	C300.946350,284.941071 300.957947,284.984802 300.585327,284.988647 
	C299.498474,285.077301 298.784210,285.162140 298.069946,285.246948 
	C297.556610,285.215088 297.043274,285.183228 295.875671,285.145752 
	C294.833588,285.172119 294.445770,285.204102 294.057922,285.236084 
	C293.624115,285.172180 293.190338,285.108276 292.332947,284.750732 
	C291.581635,284.378265 291.253967,284.299408 290.926270,284.220551 
	C290.926270,284.220551 290.515839,284.101654 290.219604,283.763977 
	C289.568970,283.336761 289.214539,283.247223 288.860107,283.157715 
	C288.860107,283.157715 288.485901,283.048981 288.193176,282.766785 
	C287.599670,282.288147 287.298889,282.091736 286.998077,281.895294 
	C286.976593,281.574341 286.833191,281.322906 286.278442,280.779236 
	C285.667847,280.228912 285.346680,280.040283 285.025543,279.851654 
	C284.947510,279.547119 284.776672,279.309143 284.215637,278.807465 
	C283.621277,278.290070 283.324402,278.102936 283.027527,277.915833 
z"/>
<path fill="#BB4D2B" opacity="1.000000" stroke="none" 
	d="
M161.459259,219.030792 
	C160.989624,219.033142 160.988770,218.598236 160.987488,218.380814 
	C202.045319,218.108185 243.104431,218.043076 284.163574,218.002182 
	C303.115051,217.983307 322.066559,218.011780 341.480225,218.065552 
	C339.331512,218.416306 336.720947,218.983261 334.109833,218.985626 
	C276.716217,219.037628 219.322540,219.027054 161.459259,219.030792 
z"/>
<path fill="#C94A24" opacity="1.000000" stroke="none" 
	d="
M343.020935,217.521423 
	C342.879944,195.215622 342.950073,172.569107 343.025726,149.922607 
	C343.036835,146.592163 343.074036,143.261810 343.191132,139.468414 
	C343.517365,140.640121 343.952637,142.274445 343.955566,143.909576 
	C343.996674,166.709412 343.993713,189.509415 343.943146,212.309235 
	C343.939545,213.933578 343.480865,215.556915 343.020935,217.521423 
z"/>
<path fill="#DE421A" opacity="1.000000" stroke="none" 
	d="
M202.560028,229.760101 
	C194.261734,229.956848 185.603470,229.971466 176.477905,229.983917 
	C184.740433,229.847168 193.470261,229.712570 202.560028,229.760101 
z"/>
<path fill="#CF5738" opacity="1.000000" stroke="none" 
	d="
M301.326660,284.944458 
	C302.709717,283.928223 304.473083,282.915375 306.595581,281.890778 
	C305.205475,282.901947 303.456207,283.924866 301.326660,284.944458 
z"/>
<path fill="#DE421A" opacity="1.000000" stroke="none" 
	d="
M238.639359,229.811920 
	C236.580322,230.000061 234.189621,230.009216 231.342285,230.013245 
	C233.359665,229.883041 235.833679,229.757996 238.639359,229.811920 
z"/>
<path fill="#C94A24" opacity="1.000000" stroke="none" 
	d="
M375.364380,123.260529 
	C376.132538,123.112198 377.157379,123.097038 378.566711,123.093811 
	C377.841187,123.201721 376.731110,123.297714 375.364380,123.260529 
z"/>
<path fill="#CF5738" opacity="1.000000" stroke="none" 
	d="
M308.178284,280.845642 
	C308.339447,280.280212 308.796112,279.595154 309.605774,278.834351 
	C309.463776,279.414398 308.968781,280.070190 308.178284,280.845642 
z"/>
<path fill="#CF5738" opacity="1.000000" stroke="none" 
	d="
M298.307129,285.356018 
	C298.784210,285.162140 299.498474,285.077301 300.571167,284.966766 
	C300.134521,285.115723 299.339417,285.290375 298.307129,285.356018 
z"/>
<path fill="#CF5738" opacity="1.000000" stroke="none" 
	d="
M294.220032,285.330475 
	C294.445770,285.204102 294.833588,285.172119 295.497955,285.229553 
	C295.310364,285.354248 294.846252,285.389557 294.220032,285.330475 
z"/>
<path fill="#C94A24" opacity="1.000000" stroke="none" 
	d="
M390.129822,123.199509 
	C390.023468,123.152489 390.468231,123.164780 390.688965,123.180275 
	C390.909698,123.195770 390.576904,123.283119 390.576904,123.283119 
	C390.576904,123.283119 390.236176,123.246529 390.129822,123.199509 
z"/>
<path fill="#CF5738" opacity="1.000000" stroke="none" 
	d="
M283.182373,278.115967 
	C283.324402,278.102936 283.621277,278.290070 284.004272,278.733826 
	C283.839294,278.765656 283.588257,278.540894 283.182373,278.115967 
z"/>
<path fill="#CF5738" opacity="1.000000" stroke="none" 
	d="
M285.173096,280.076477 
	C285.346680,280.040283 285.667847,280.228912 286.072174,280.693542 
	C285.877106,280.746826 285.598877,280.524048 285.173096,280.076477 
z"/>
<path fill="#CF5738" opacity="1.000000" stroke="none" 
	d="
M307.127136,281.833801 
	C307.111115,281.689209 307.294586,281.388092 307.737244,281.002197 
	C307.773163,281.170715 307.549896,281.423950 307.127136,281.833801 
z"/>
<path fill="#CF5738" opacity="1.000000" stroke="none" 
	d="
M287.148010,282.110718 
	C287.298889,282.091736 287.599670,282.288147 288.000000,282.741608 
	C287.832306,282.774475 287.565125,282.550323 287.148010,282.110718 
z"/>
<path fill="#CF5738" opacity="1.000000" stroke="none" 
	d="
M289.050415,283.321716 
	C289.214539,283.247223 289.568970,283.336761 290.012878,283.709961 
	C289.815186,283.824310 289.527954,283.654999 289.050415,283.321716 
z"/>
<path fill="#CF5738" opacity="1.000000" stroke="none" 
	d="
M291.100281,284.379211 
	C291.253967,284.299408 291.581635,284.378265 292.004944,284.717712 
	C291.797852,284.882690 291.522430,284.735840 291.100281,284.379211 
z"/>
<path fill="#000000" opacity="1.000000" stroke="none" 
	d="
M256.916534,119.032501 
	C260.752838,120.611931 264.573914,122.229706 268.428040,123.764336 
	C287.963562,131.542877 302.029755,144.538345 308.114441,165.203064 
	C308.755280,167.379547 309.595551,169.497330 310.723175,172.153915 
	C311.175507,173.108078 311.247986,173.550674 311.320435,173.993271 
	C311.545319,176.012756 311.770203,178.032227 311.976807,180.478012 
	C311.958557,180.904312 312.008911,180.860947 311.537292,180.885864 
	C301.376404,180.926422 291.686981,180.916748 281.997833,180.964844 
	C272.341309,181.012772 262.685028,181.118652 252.715988,181.150085 
	C251.983429,181.062271 251.563507,181.023514 251.002167,180.641327 
	C241.234497,180.588226 231.608246,180.878586 221.659027,181.130692 
	C220.903992,181.119156 220.471954,181.145874 219.665619,181.078232 
	C216.905350,181.057358 214.519409,181.130844 211.789337,181.197998 
	C210.614212,181.528122 209.783218,181.864578 208.512558,182.135818 
	C197.776276,181.451874 187.479660,180.833160 177.022247,180.204773 
	C177.022247,179.244614 176.956238,178.245682 177.042862,177.260147 
	C177.113892,176.452286 177.403000,175.666306 177.533295,174.860565 
	C179.830338,160.657242 186.865021,148.837265 196.049805,138.084091 
	C196.082657,138.087936 196.084854,138.021805 196.440674,137.996338 
	C200.776047,134.864273 204.757172,131.759659 208.734192,128.649826 
	C209.834747,127.789261 210.923096,126.913071 212.243561,125.991066 
	C212.470062,125.938072 212.923920,125.835800 212.923920,125.835800 
	C218.787003,124.126595 224.584335,122.120811 230.533951,120.802032 
	C235.292343,119.747314 240.235947,119.528084 245.877823,118.943413 
	C247.111877,118.897980 247.565460,118.847176 248.019028,118.796371 
	C250.217575,119.104721 252.416138,119.413071 255.135910,119.371979 
	C256.076935,119.025856 256.496735,119.029175 256.916534,119.032501 
z"/>
<path fill="#E65223" opacity="1.000000" stroke="none" 
	d="
M251.143600,180.984741 
	C251.563507,181.023514 251.983429,181.062271 253.095703,181.298737 
	C272.488922,181.695236 291.189667,181.907684 309.890961,182.039948 
	C310.594147,182.044907 311.302826,181.271591 312.008911,180.860962 
	C312.008911,180.860947 311.958557,180.904312 311.957092,180.870132 
	C313.963531,179.316833 315.951660,177.770416 317.989044,176.291916 
	C318.817535,175.690674 319.753082,175.237015 320.639893,174.716202 
	C320.948334,175.731064 321.691376,176.846741 321.483765,177.741898 
	C320.857086,180.443573 319.860962,183.059570 318.933197,185.944138 
	C320.485107,187.332108 322.146149,188.817642 324.708099,191.108932 
	C324.980530,188.187561 325.161316,186.249084 325.342102,184.310608 
	C325.701721,183.968918 326.061310,183.627228 326.420929,183.285522 
	C327.584167,184.658951 329.376312,185.874435 329.769745,187.441162 
	C330.433167,190.083221 331.854462,193.742767 326.369293,193.984497 
	C326.000000,194.000000 325.995117,193.995895 325.995117,193.995895 
	C324.279419,193.634644 322.563721,193.273407 319.267822,192.579453 
	C323.199799,196.553238 320.872406,197.108109 318.775146,199.268036 
	C312.148926,206.092270 304.102295,203.779617 296.582245,203.884705 
	C274.100586,204.198868 251.611740,203.999832 229.125702,203.997635 
	C221.729935,203.996918 221.729935,203.991974 218.380493,197.403259 
	C217.945923,198.927353 217.933823,200.140259 217.327484,200.833038 
	C216.316788,201.987808 214.948349,203.605057 213.690811,203.641098 
	C206.082199,203.859070 198.456711,203.833176 190.849640,203.547913 
	C188.597488,203.463486 186.420059,202.107391 184.144287,201.660461 
	C182.780273,201.392578 181.259399,201.597366 179.869141,201.882660 
	C178.531357,202.157196 176.642120,203.607239 176.079422,203.164093 
	C172.639160,200.454666 169.553986,197.299484 166.229843,194.432739 
	C165.634201,193.919037 164.476135,194.057480 163.288879,193.947418 
	C163.000000,194.000000 162.994461,193.996185 162.994461,193.996185 
	C162.854630,193.348129 162.873657,192.604660 162.550568,192.066666 
	C159.092636,186.308670 159.151016,185.958160 164.869995,181.325150 
	C166.351624,176.738541 167.509949,172.385254 169.017242,168.156357 
	C170.901291,162.870377 173.196609,157.730362 175.057480,152.437012 
	C175.787521,150.360336 175.822098,148.039185 176.175873,145.477600 
	C181.173904,140.118454 186.079941,135.016327 191.218109,130.159790 
	C192.816711,128.648804 195.043945,127.802879 198.111725,125.983223 
	C199.165344,121.453270 202.993988,118.310112 209.296921,118.283447 
	C209.912354,118.280838 210.733780,118.041275 211.108292,117.608025 
	C214.755341,113.389214 218.768326,112.130898 223.849442,115.305336 
	C224.393265,115.645088 226.934341,114.172058 227.337265,113.089149 
	C228.466248,110.054802 230.529251,109.663528 232.842178,110.803825 
	C235.918121,112.320297 240.819351,111.525650 241.292953,115.671600 
	C234.719788,117.275017 228.515732,118.804344 222.302521,120.295502 
	C220.078445,120.829262 217.709045,120.983231 215.644638,121.867630 
	C214.498886,122.358459 213.845535,123.998695 212.947083,125.478340 
	C212.923920,125.835800 212.470062,125.938072 211.848465,125.985367 
	C207.292053,127.804718 203.475128,129.949554 199.388580,131.241760 
	C195.470917,132.480545 194.447449,134.422058 196.084854,138.021805 
	C196.084854,138.021805 196.082657,138.087936 195.645844,138.068542 
	C193.401855,138.528061 190.092987,138.853348 190.025772,139.510315 
	C189.500717,144.641907 185.670090,146.614914 182.147079,149.116135 
	C181.153854,149.821289 180.651367,151.463028 180.308716,152.775665 
	C179.900635,154.338852 180.095337,156.057541 179.701080,157.626480 
	C178.021683,164.309921 176.060226,170.926361 174.535156,177.642975 
	C173.811142,180.831604 174.362305,183.786041 178.829498,183.585083 
	C182.055023,183.439987 185.288376,183.172974 188.508560,183.272812 
	C193.680099,183.433136 198.842636,184.029572 204.011093,184.057800 
	C205.654709,184.066757 207.304993,182.854492 208.952225,182.201050 
	C209.783218,181.864578 210.614212,181.528122 212.119202,181.341095 
	C215.208786,181.384537 217.624344,181.278564 220.039917,181.172607 
	C220.471954,181.145874 220.903992,181.119156 222.043365,181.279449 
	C232.215012,181.305878 241.679306,181.145309 251.143600,180.984741 
M201.494354,126.477333 
	C201.494354,126.477333 201.505295,126.513100 201.494354,126.477333 
z"/>
<path fill="#E65223" opacity="1.000000" stroke="none" 
	d="
M257.210876,118.925995 
	C256.496735,119.029175 256.076935,119.025856 255.343842,119.055000 
	C253.641739,117.659241 252.263855,116.220200 250.860947,114.806000 
	C249.578781,113.513519 248.269547,112.247902 247.579575,110.196182 
	C253.405426,111.315247 259.373688,111.642410 262.872925,117.660278 
	C263.003693,117.991959 262.989044,118.018082 262.989044,118.018082 
	C261.161102,118.285217 259.333160,118.552353 257.210876,118.925995 
z"/>
<path fill="#E65223" opacity="1.000000" stroke="none" 
	d="
M311.575989,174.113525 
	C311.247986,173.550674 311.175507,173.108078 311.061707,172.330307 
	C311.171967,171.704010 311.265839,171.356888 311.484802,171.131058 
	C312.690125,169.887863 313.926025,168.674332 315.151459,167.450623 
	C315.617432,169.004822 316.667114,170.661636 316.416046,172.089767 
	C316.013275,174.380600 314.536011,176.045197 311.575989,174.113525 
z"/>
<path fill="#E65223" opacity="1.000000" stroke="none" 
	d="
M310.659241,155.893860 
	C310.562897,157.130432 310.356293,158.098160 310.149689,159.065903 
	C309.612915,158.700302 309.076111,158.334702 308.539337,157.969101 
	C309.209198,157.187744 309.879089,156.406387 310.659241,155.893860 
z"/>
<path fill="#E65223" opacity="1.000000" stroke="none" 
	d="
M263.010193,117.977760 
	C263.746094,117.479324 264.475494,116.995094 265.204926,116.510864 
	C265.349823,117.105240 265.494720,117.699608 265.639618,118.293983 
	C264.873413,118.338120 264.107178,118.382256 263.165009,118.222229 
	C262.989044,118.018082 263.003693,117.991959 263.010193,117.977760 
z"/>
<path fill="#E65223" opacity="1.000000" stroke="none" 
	d="
M248.101898,118.559380 
	C247.565460,118.847176 247.111877,118.897980 246.321228,118.876724 
	C246.437622,118.084969 246.891083,117.365280 247.344543,116.645599 
	C247.624619,117.204536 247.904678,117.763466 248.101898,118.559380 
z"/>
<path fill="#E65223" opacity="1.000000" stroke="none" 
	d="
M326.002045,194.002411 
	C325.750610,194.330444 325.497162,194.656036 325.243683,194.981644 
	C325.380585,194.697464 325.517487,194.413300 325.824768,194.062515 
	C325.995117,193.995895 326.000000,194.000000 326.002045,194.002411 
z"/>
<path fill="#E65223" opacity="1.000000" stroke="none" 
	d="
M163.001938,194.002808 
	C163.003876,194.005615 162.939560,194.033142 162.967010,194.014664 
	C162.994461,193.996185 163.000000,194.000000 163.001938,194.002808 
z"/>
<path fill="#000000" opacity="1.000000" stroke="none" 
	d="
M171.841125,363.996033 
	C168.423721,363.995575 165.468246,363.995575 162.546936,363.995575 
	C162.086853,359.751160 165.155060,356.139221 169.598999,355.099030 
	C172.561890,354.405548 177.831955,356.898987 178.463028,360.096832 
	C179.513626,365.420563 174.988312,363.615997 171.841125,363.996033 
z"/>
<path fill="#000000" opacity="1.000000" stroke="none" 
	d="
M331.296814,371.031097 
	C333.008392,371.008850 334.290405,371.008850 335.513031,371.008850 
	C336.530701,378.775543 331.059265,383.378387 324.085083,380.844788 
	C322.833984,380.390289 321.275055,378.485992 321.327576,377.317078 
	C321.394409,375.829376 322.633850,373.828583 323.950745,373.093506 
	C325.997986,371.950775 328.536804,371.688721 331.296814,371.031097 
z"/>
<path fill="#000000" opacity="1.000000" stroke="none" 
	d="
M205.794662,374.851166 
	C210.314163,373.000641 214.560364,371.431885 218.878799,369.836456 
	C221.246475,375.089630 218.822845,378.180176 216.268295,379.854950 
	C214.115753,381.266083 210.515991,381.236694 207.808212,380.661530 
	C206.704285,380.427032 206.263733,377.069580 205.794662,374.851166 
z"/>
<path fill="#C94A24" opacity="1.000000" stroke="none" 
	d="
M248.603363,329.335022 
	C248.848450,346.381317 248.929459,363.807587 249.018555,381.233826 
	C249.028748,383.225067 249.084167,385.216064 249.010254,387.681946 
	C248.649307,387.372162 248.174316,386.586884 248.176712,385.803040 
	C248.233994,367.106934 248.342514,348.410980 248.603363,329.335022 
z"/>
<path fill="#E55427" opacity="1.000000" stroke="none" 
	d="
M208.512558,182.135818 
	C207.304993,182.854492 205.654709,184.066757 204.011093,184.057800 
	C198.842636,184.029572 193.680099,183.433136 188.508560,183.272812 
	C185.288376,183.172974 182.055023,183.439987 178.829498,183.585083 
	C174.362305,183.786041 173.811142,180.831604 174.535156,177.642975 
	C176.060226,170.926361 178.021683,164.309921 179.701080,157.626480 
	C180.095337,156.057541 179.900635,154.338852 180.308716,152.775665 
	C180.651367,151.463028 181.153854,149.821289 182.147079,149.116135 
	C185.670090,146.614914 189.500717,144.641907 190.025772,139.510315 
	C190.092987,138.853348 193.401855,138.528061 195.612976,138.064697 
	C186.865021,148.837265 179.830338,160.657242 177.533295,174.860565 
	C177.403000,175.666306 177.113892,176.452286 177.042862,177.260147 
	C176.956238,178.245682 177.022247,179.244614 177.022247,180.204773 
	C187.479660,180.833160 197.776276,181.451874 208.512558,182.135818 
z"/>
<path fill="#CF5738" opacity="1.000000" stroke="none" 
	d="
M311.537292,180.885880 
	C311.302826,181.271591 310.594147,182.044907 309.890961,182.039948 
	C291.189667,181.907684 272.488922,181.695236 253.408356,181.347778 
	C262.685028,181.118652 272.341309,181.012772 281.997833,180.964844 
	C291.686981,180.916748 301.376404,180.926422 311.537292,180.885880 
z"/>
<path fill="#E55427" opacity="1.000000" stroke="none" 
	d="
M196.440674,137.996338 
	C194.447449,134.422058 195.470917,132.480545 199.388580,131.241760 
	C203.475128,129.949554 207.292053,127.804718 211.621964,126.038361 
	C210.923096,126.913071 209.834747,127.789261 208.734192,128.649826 
	C204.757172,131.759659 200.776047,134.864273 196.440674,137.996338 
z"/>
<path fill="#CF5738" opacity="1.000000" stroke="none" 
	d="
M251.002167,180.641312 
	C241.679306,181.145309 232.215012,181.305878 222.366364,181.317688 
	C231.608246,180.878586 241.234497,180.588226 251.002167,180.641312 
z"/>
<path fill="#CF5738" opacity="1.000000" stroke="none" 
	d="
M219.665619,181.078247 
	C217.624344,181.278564 215.208786,181.384537 212.463333,181.347412 
	C214.519409,181.130844 216.905350,181.057358 219.665619,181.078247 
z"/>
<path fill="#E55427" opacity="1.000000" stroke="none" 
	d="
M201.499817,126.495216 
	C201.505295,126.513100 201.494354,126.477333 201.499817,126.495216 
z"/>
</svg>